<!DOCTYPE svg PUBLIC "-//W3C//DTD SVG 20010904//EN" "http://www.w3.org/TR/2001/REC-SVG-20010904/DTD/svg10.dtd">
<svg version="1.0" xmlns="http://www.w3.org/2000/svg" width="96px" height="96px" viewBox="0 0 960 960" preserveAspectRatio="xMidYMid meet">
<g id="layer101" fill="#999999" stroke="none">
 <path d="M328 941 c-145 -47 -269 -174 -312 -320 -21 -71 -21 -211 0 -282 43 -148 168 -274 315 -320 82 -26 216 -26 298 0 147 46 272 172 315 320 21 71 21 211 0 282 -43 148 -168 274 -315 320 -81 25 -222 25 -301 0z m299 -69 c197 -75 311 -290 259 -492 -81 -317 -470 -425 -701 -195 -270 270 -66 731 315 711 41 -2 98 -13 127 -24z"/>
 <path d="M570 582 c-58 -20 -111 -41 -118 -45 -9 -6 -12 -56 -12 -181 0 -146 3 -176 16 -187 11 -9 20 -10 32 -2 15 9 17 33 20 166 l3 156 110 36 c106 36 110 38 107 64 -4 38 -34 36 -158 -7z"/>
 </g>

</svg>