<?xml version="1.0" encoding="utf-8"?>
<!-- Generator: Adobe Illustrator 23.0.1, SVG Export Plug-In . SVG Version: 6.00 Build 0)  -->
<svg version="1.1" id="图层_1" xmlns="http://www.w3.org/2000/svg" xmlns:xlink="http://www.w3.org/1999/xlink" x="0px" y="0px"
	 viewBox="0 0 16 16" style="enable-background:new 0 0 16 16;" xml:space="preserve">
<style type="text/css">
	.st0{fill-rule:evenodd;clip-rule:evenodd;fill:#FB7299;}
</style>
<title>16_ic_General_popular</title>
<desc>Created with Sketch.</desc>
<g id="当前最终">
	<g id="方案" transform="translate(-16.000000, -304.000000)">
		<g id="Info" transform="translate(0.000000, 299.000000)">
			<g id="标题">
				<g id="ads_tag" transform="translate(12.000000, 3.000000)">
					<g id="ic_General_popular" transform="translate(4.000000, 2.000000)">
						<path id="Fill-1" class="st0" d="M12.8,8.3c-1-2.6-1.9-2.9-2.5-3.3c0.5,1,0.4,2.1-0.4,2.1c-0.8,0-0.9-0.8-0.7-1.8
							C9.5,3.1,7.9,2,7.9,2s0.5,1.3-1.8,3.5c-0.8,0.7-1.6,1.9-2,3.2c-0.4,1.7,0.8,4.7,4.4,4.8c-0.6,0-1.3-0.8-1.1-1.4
							c0.1-0.3,0.4-0.6,0.6-0.8c0.6-0.7,0.4-1.1,0.4-1.1s1.1,1.3,1.3,1.8c0.2,0.6-0.5,1.5-1.1,1.5h0C12.5,13.5,13.5,10.1,12.8,8.3"
							/>
					</g>
				</g>
			</g>
		</g>
	</g>
</g>
</svg>
