<!DOCTYPE svg PUBLIC "-//W3C//DTD SVG 20010904//EN" "http://www.w3.org/TR/2001/REC-SVG-20010904/DTD/svg10.dtd">
<svg version="1.0" xmlns="http://www.w3.org/2000/svg" width="72px" height="72px" viewBox="0 0 720 720" preserveAspectRatio="xMidYMid meet">
<g id="layer101" fill="#ffffff" stroke="none">
 <path d="M452 674 c-56 -29 -86 -77 -90 -149 -8 -117 51 -186 163 -193 117 -8 186 51 193 163 5 76 -15 124 -66 163 -45 34 -148 42 -200 16z m147 -52 c38 -20 71 -73 71 -112 0 -39 -33 -92 -71 -112 -43 -23 -75 -23 -118 0 -38 20 -71 73 -71 112 0 62 68 130 130 130 14 0 41 -8 59 -18z"/>
 <path d="M482 585 c-20 -17 -32 -36 -32 -51 0 -28 24 -32 50 -9 14 13 20 10 54 -30 41 -50 76 -60 76 -22 0 14 -21 44 -58 80 l-59 58 -31 -26z"/>
 <path d="M83 609 c-71 -35 -83 -74 -83 -264 0 -191 12 -230 84 -264 39 -19 61 -21 261 -21 200 0 222 2 261 21 57 27 86 85 82 161 -3 49 -5 53 -28 53 -24 0 -25 -4 -30 -63 -4 -54 -9 -67 -33 -88 -28 -24 -30 -24 -253 -24 l-226 0 -29 29 -29 29 0 166 c0 160 1 166 24 193 23 26 31 28 118 33 91 5 93 5 93 30 0 24 -2 25 -85 28 -70 2 -92 -1 -127 -19z"/>
 <path d="M157 464 c-4 -4 -7 -16 -7 -26 0 -16 9 -18 76 -18 72 0 75 1 72 23 -3 20 -9 22 -68 25 -36 2 -69 0 -73 -4z"/>
 <path d="M127 344 c-4 -4 -7 -16 -7 -26 0 -16 9 -18 76 -18 72 0 75 1 72 23 -3 20 -9 22 -68 25 -36 2 -69 0 -73 -4z"/>
 <path d="M307 344 c-4 -4 -7 -16 -7 -26 0 -13 8 -18 31 -18 26 0 30 3 27 23 -3 22 -36 36 -51 21z"/>
 <path d="M187 224 c-4 -4 -7 -16 -7 -26 0 -17 11 -18 136 -18 135 0 135 0 132 23 -3 21 -7 22 -129 25 -69 1 -128 -1 -132 -4z"/>
 </g>

</svg>