<!DOCTYPE svg PUBLIC "-//W3C//DTD SVG 20010904//EN" "http://www.w3.org/TR/2001/REC-SVG-20010904/DTD/svg10.dtd">
<svg version="1.0" xmlns="http://www.w3.org/2000/svg" width="66px" height="66px" viewBox="0 0 660 660" preserveAspectRatio="xMidYMid meet">
<g id="layer101" fill="#ffffff" stroke="none">
 <path d="M302 518 c3 -22 8 -23 96 -26 l92 -3 0 -93 c0 -94 6 -110 38 -99 9 3 12 37 12 124 l0 119 -121 0 c-119 0 -120 0 -117 -22z"/>
 <path d="M133 363 c-10 -3 -13 -37 -13 -124 l0 -119 119 0 c86 0 120 3 123 13 12 31 -4 37 -98 37 l-94 0 0 94 c0 94 -6 110 -37 99z"/>
 </g>

</svg>