<!DOCTYPE svg PUBLIC "-//W3C//DTD SVG 20010904//EN" "http://www.w3.org/TR/2001/REC-SVG-20010904/DTD/svg10.dtd">
<svg version="1.0" xmlns="http://www.w3.org/2000/svg" width="180px" height="180px" viewBox="0 0 1800 1800" preserveAspectRatio="xMidYMid meet">
<g id="layer101" fill="#b0b9c0" stroke="none">
 <path d="M0 900 l0 -900 900 0 900 0 0 900 0 900 -900 0 -900 0 0 -900z"/>
 </g>
<g id="layer102" fill="#cbd1d8" stroke="none">
 <path d="M0 900 l0 -900 900 0 900 0 0 900 0 900 -262 0 -263 0 -43 -133 c-24 -72 -52 -152 -64 -177 -11 -24 -30 -65 -41 -90 -12 -25 -23 -48 -25 -52 -2 -5 44 -8 103 -8 119 0 149 -10 189 -62 39 -52 49 -139 44 -381 -5 -229 -10 -252 -61 -305 -40 -42 -80 -52 -202 -52 l-99 0 48 -49 c51 -52 58 -84 18 -89 -17 -3 -41 15 -96 67 l-73 71 -69 0 -70 0 -69 -70 c-70 -71 -106 -87 -119 -53 -5 11 7 31 39 63 25 25 45 48 45 52 0 3 -53 7 -117 9 -141 5 -177 21 -215 97 -22 44 -23 60 -26 275 -4 250 4 311 44 364 40 53 70 63 185 63 92 0 101 2 94 18 -30 71 -108 293 -127 360 l-23 82 -272 0 -273 0 0 -900z"/>
 <path d="M956 1480 c-12 -51 -26 -115 -26 -127 0 -9 17 -13 50 -13 34 0 50 4 50 13 -1 6 -16 44 -34 82 -30 62 -34 67 -40 45z"/>
 <path d="M794 1423 c-16 -37 -30 -71 -32 -75 -2 -4 22 -8 53 -8 55 0 57 1 51 23 -3 12 -11 46 -17 75 -7 28 -15 52 -19 52 -4 0 -20 -30 -36 -67z"/>
 <path d="M464 1267 c-38 -33 -43 -83 -36 -372 l5 -250 28 -27 27 -28 417 0 417 0 27 28 28 27 5 250 c7 280 2 334 -32 370 l-23 25 -418 0 -418 0 -27 -23z m814 -23 c27 -8 52 -52 51 -91 -1 -23 -3 -20 -10 14 -6 23 -17 47 -26 55 -12 10 -98 14 -387 18 l-371 5 360 3 c198 1 370 -1 383 -4z m-767 -30 c-12 -15 -22 -41 -22 -58 -1 -18 -3 -24 -6 -13 -7 25 4 62 23 81 24 25 28 19 5 -10z m-24 -361 c-1 -49 -3 -9 -3 87 0 96 2 136 3 88 2 -49 2 -127 0 -175z m840 0 c-1 -49 -3 -9 -3 87 0 96 2 136 3 88 2 -49 2 -127 0 -175z m-443 230 c4 -5 26 -8 48 -8 27 0 44 -6 51 -17 18 -27 1 -32 -24 -7 l-22 22 -18 -24 -17 -23 -21 24 -21 25 -20 -24 c-11 -13 -23 -21 -26 -18 -11 11 5 37 28 47 29 11 33 12 42 3z m-213 -122 c77 -26 139 -59 139 -74 0 -6 -4 -18 -9 -26 -12 -18 -78 -5 -163 33 -56 25 -65 37 -52 70 8 20 19 20 85 -3z m554 -12 c4 -11 5 -22 3 -24 -15 -13 -123 -61 -162 -71 -44 -12 -51 -11 -62 4 -8 9 -14 20 -14 23 0 12 36 36 85 56 94 39 141 43 150 12z m-715 -283 c11 -14 61 -16 396 -16 l383 0 12 23 c7 12 16 36 20 52 l7 30 1 -33 c1 -25 -7 -41 -28 -63 l-29 -29 -359 0 c-197 0 -367 3 -379 6 -27 7 -54 54 -53 91 1 25 2 24 8 -9 4 -20 13 -44 21 -52z"/>
 </g>
<g id="layer103" fill="#e5e9ef" stroke="none">
 <path d="M0 900 l0 -900 900 0 900 0 0 900 0 900 -260 0 -259 0 -30 -92 c-43 -135 -58 -174 -102 -267 -21 -46 -36 -87 -33 -92 3 -5 52 -9 109 -9 103 0 105 0 141 -32 69 -61 74 -82 74 -358 0 -261 -5 -301 -47 -350 -43 -52 -70 -60 -200 -60 l-117 0 48 -49 c49 -50 56 -75 24 -95 -15 -9 -30 1 -96 67 l-77 77 -70 0 -70 0 -77 -77 c-66 -66 -81 -76 -96 -67 -32 20 -25 45 24 95 l48 49 -117 0 c-125 0 -153 7 -194 52 -49 52 -53 80 -53 346 0 256 4 290 42 345 34 48 70 59 185 59 56 -1 103 1 103 3 0 2 -14 34 -31 72 -30 67 -96 258 -118 341 l-12 42 -269 0 -270 0 0 -900z"/>
 <path d="M948 1424 c-16 -78 -13 -84 45 -84 45 0 46 6 3 89 l-33 64 -15 -69z"/>
 <path d="M796 1419 c-14 -33 -24 -65 -20 -70 6 -10 54 -12 77 -4 12 5 12 14 -2 65 -9 32 -19 61 -22 65 -3 3 -18 -22 -33 -56z"/>
 <path d="M468 1261 l-33 -29 0 -292 0 -292 33 -29 32 -29 405 0 405 0 32 29 33 29 0 291 0 290 -29 30 -30 31 -408 0 -408 0 -32 -29z m839 -33 c23 -21 23 -22 23 -287 0 -258 -1 -265 -22 -288 l-21 -23 -381 0 c-376 0 -380 0 -403 22 -23 21 -23 22 -23 287 0 258 1 265 22 288 l21 23 381 0 c376 0 380 0 403 -22z"/>
 <path d="M870 1233 c-310 -3 -346 -5 -357 -20 -10 -12 -13 -84 -13 -273 0 -236 1 -258 18 -273 17 -15 58 -17 389 -17 346 0 371 1 386 18 15 16 17 50 17 273 0 189 -3 259 -12 271 -18 22 -42 23 -428 21z m18 -155 c9 -9 15 -9 24 0 19 19 42 14 67 -12 27 -29 10 -47 -20 -20 -18 16 -20 16 -40 -2 -20 -18 -22 -18 -34 -1 -15 21 -44 22 -51 2 -6 -15 -34 -22 -34 -8 0 4 10 17 22 30 24 25 48 29 66 11z m-149 -140 c69 -35 87 -62 56 -88 -13 -10 -27 -8 -88 14 -86 31 -137 61 -137 79 0 47 69 46 169 -5z m479 30 c28 -28 13 -49 -63 -84 -91 -42 -130 -51 -150 -34 -31 26 -18 50 43 77 58 26 128 51 148 52 5 1 15 -4 22 -11z"/>
 </g>

</svg>