<!DOCTYPE svg PUBLIC "-//W3C//DTD SVG 20010904//EN" "http://www.w3.org/TR/2001/REC-SVG-20010904/DTD/svg10.dtd">
<svg version="1.0" xmlns="http://www.w3.org/2000/svg" width="84px" height="84px" viewBox="0 0 840 840" preserveAspectRatio="xMidYMid meet">
<g id="layer101" fill="#cccccc" stroke="none">
 <path d="M295 827 c-118 -39 -207 -117 -258 -225 -30 -63 -32 -73 -32 -182 0 -109 2 -119 32 -182 41 -88 113 -160 201 -201 63 -30 73 -32 182 -32 109 0 119 2 182 32 88 41 160 113 201 201 30 63 32 73 32 182 0 109 -2 119 -32 182 -41 88 -113 160 -201 201 -59 28 -79 32 -167 34 -63 2 -115 -2 -140 -10z"/>
 </g>
<g id="layer102" fill="#fefefe" stroke="none">
 <path d="M252 588 c-20 -20 -15 -30 55 -100 l67 -68 -68 -69 c-47 -48 -67 -74 -63 -85 15 -38 38 -29 108 40 l69 68 69 -68 c48 -47 74 -67 85 -63 38 15 29 38 -40 108 l-68 69 68 69 c69 70 78 93 40 108 -11 4 -37 -16 -85 -63 l-69 -68 -68 67 c-70 70 -80 75 -100 55z"/>
 </g>

</svg>