<!DOCTYPE svg PUBLIC "-//W3C//DTD SVG 20010904//EN" "http://www.w3.org/TR/2001/REC-SVG-20010904/DTD/svg10.dtd">
<svg version="1.0" xmlns="http://www.w3.org/2000/svg" width="660px" height="660px" viewBox="0 0 6600 6600" preserveAspectRatio="xMidYMid meet">
<g id="layer101" fill="#cccccc" stroke="none">
 <path d="M2510 4605 c-14 -7 -37 -36 -50 -64 -16 -31 -32 -50 -42 -51 -36 0 -241 -48 -248 -58 -3 -4 -20 -15 -39 -26 -56 -31 -139 -124 -174 -195 l-32 -66 -3 -694 c-2 -471 1 -712 8 -747 19 -93 108 -209 209 -273 87 -56 139 -65 429 -71 l263 -5 -116 -116 c-96 -97 -115 -122 -115 -147 0 -45 30 -90 68 -103 70 -23 87 -12 283 186 l183 185 170 0 170 0 186 -184 c119 -119 195 -187 213 -192 70 -17 137 35 137 107 0 28 -16 48 -117 150 l-116 118 259 3 c213 3 270 7 319 21 142 43 277 173 311 302 21 76 20 1412 0 1480 -16 51 -69 137 -107 172 -50 47 -85 73 -104 79 -10 4 -25 12 -32 20 -7 7 -39 17 -71 23 -31 6 -76 15 -100 21 -23 5 -53 10 -67 10 -14 0 -25 5 -25 11 0 27 -36 83 -64 100 -23 14 -50 19 -103 19 -67 0 -75 -2 -108 -31 -19 -17 -35 -40 -35 -50 0 -10 -4 -19 -10 -19 -5 0 -10 -7 -10 -15 0 -13 -65 -15 -527 -15 l-528 0 -19 46 c-26 64 -62 84 -151 84 -40 -1 -81 -7 -95 -15z m1758 -449 c15 -8 38 -27 52 -43 l25 -28 0 -655 0 -655 -22 -25 c-13 -13 -23 -27 -23 -31 0 -4 -21 -19 -46 -33 l-47 -26 -923 0 c-535 0 -924 4 -924 9 0 5 -11 11 -23 15 -35 8 -76 53 -86 95 -6 22 -7 275 -3 667 l7 630 29 35 c15 19 40 39 55 46 20 9 254 12 964 13 787 0 942 -2 965 -14z"/>
 <path d="M3083 3903 c-13 -2 -23 -8 -23 -13 0 -4 -11 -11 -24 -14 -13 -3 -45 -29 -70 -57 -39 -44 -46 -57 -46 -93 0 -51 13 -66 59 -66 31 0 42 7 79 50 36 42 49 50 77 50 18 0 41 -3 50 -6 15 -6 95 -120 95 -136 0 -4 9 -8 19 -8 12 0 29 17 46 48 45 78 73 102 118 102 38 0 62 -17 115 -84 7 -9 27 -16 47 -16 45 0 70 35 61 83 -7 38 -80 121 -117 132 -13 4 -27 12 -30 17 -3 5 -29 11 -58 15 -45 5 -61 2 -112 -22 -32 -16 -59 -33 -59 -38 0 -6 -8 -3 -17 5 -50 44 -137 65 -210 51z"/>
 <path d="M2435 3358 c-3 -18 -10 -55 -16 -83 -6 -27 -12 -68 -13 -90 l-1 -40 115 -21 c63 -11 122 -23 130 -27 8 -3 65 -13 125 -22 61 -9 119 -20 130 -25 11 -5 36 -11 56 -15 44 -7 43 -7 69 138 l16 99 -23 9 c-14 5 -35 9 -47 9 -12 0 -26 3 -30 8 -4 4 -65 17 -134 29 -70 12 -172 31 -227 42 -139 28 -143 28 -150 -11z"/>
 <path d="M4000 3369 c-52 -11 -147 -28 -210 -39 -63 -11 -124 -24 -135 -29 -11 -5 -37 -12 -59 -15 -21 -3 -41 -8 -44 -10 -3 -3 3 -59 14 -123 l19 -118 40 2 c22 2 49 7 60 12 11 6 70 17 130 26 61 9 119 20 130 24 11 5 67 17 125 26 106 16 140 32 124 57 -5 7 -16 56 -24 108 -15 95 -15 95 -45 97 -16 1 -73 -7 -125 -18z"/>
 </g>

</svg>